<svg width="62" height="20" viewBox="0 0 62 20" fill="none" xmlns="http://www.w3.org/2000/svg">
<path d="M5.556 15L2.508 11.268V15H0.828V6.624H2.508V10.38L5.556 6.624H7.584L4.128 10.776L7.68 15H5.556ZM14.965 11.532C14.965 11.772 14.949 11.988 14.917 12.18H10.057C10.097 12.66 10.265 13.036 10.561 13.308C10.857 13.58 11.221 13.716 11.653 13.716C12.277 13.716 12.721 13.448 12.985 12.912H14.797C14.605 13.552 14.237 14.08 13.693 14.496C13.149 14.904 12.481 15.108 11.689 15.108C11.049 15.108 10.473 14.968 9.96103 14.688C9.45703 14.4 9.06103 13.996 8.77303 13.476C8.49303 12.956 8.35303 12.356 8.35303 11.676C8.35303 10.988 8.49303 10.384 8.77303 9.864C9.05303 9.344 9.44503 8.944 9.94903 8.664C10.453 8.384 11.033 8.244 11.689 8.244C12.321 8.244 12.885 8.38 13.381 8.652C13.885 8.924 14.273 9.312 14.545 9.816C14.825 10.312 14.965 10.884 14.965 11.532ZM13.225 11.052C13.217 10.62 13.061 10.276 12.757 10.02C12.453 9.756 12.081 9.624 11.641 9.624C11.225 9.624 10.873 9.752 10.585 10.008C10.305 10.256 10.133 10.604 10.069 11.052H13.225ZM18.7353 15.108C18.1913 15.108 17.7033 15.012 17.2713 14.82C16.8393 14.62 16.4953 14.352 16.2393 14.016C15.9913 13.68 15.8553 13.308 15.8313 12.9H17.5233C17.5553 13.156 17.6793 13.368 17.8953 13.536C18.1193 13.704 18.3953 13.788 18.7233 13.788C19.0433 13.788 19.2913 13.724 19.4673 13.596C19.6513 13.468 19.7433 13.304 19.7433 13.104C19.7433 12.888 19.6313 12.728 19.4073 12.624C19.1913 12.512 18.8433 12.392 18.3633 12.264C17.8673 12.144 17.4593 12.02 17.1393 11.892C16.8273 11.764 16.5553 11.568 16.3233 11.304C16.0993 11.04 15.9873 10.684 15.9873 10.236C15.9873 9.868 16.0913 9.532 16.2993 9.228C16.5153 8.924 16.8193 8.684 17.2113 8.508C17.6113 8.332 18.0793 8.244 18.6153 8.244C19.4073 8.244 20.0393 8.444 20.5113 8.844C20.9833 9.236 21.2433 9.768 21.2913 10.44H19.6833C19.6593 10.176 19.5473 9.968 19.3473 9.816C19.1553 9.656 18.8953 9.576 18.5673 9.576C18.2633 9.576 18.0273 9.632 17.8593 9.744C17.6993 9.856 17.6193 10.012 17.6193 10.212C17.6193 10.436 17.7313 10.608 17.9553 10.728C18.1793 10.84 18.5273 10.956 18.9993 11.076C19.4793 11.196 19.8753 11.32 20.1873 11.448C20.4993 11.576 20.7673 11.776 20.9913 12.048C21.2233 12.312 21.3433 12.664 21.3513 13.104C21.3513 13.488 21.2433 13.832 21.0273 14.136C20.8193 14.44 20.5153 14.68 20.1153 14.856C19.7233 15.024 19.2633 15.108 18.7353 15.108ZM22.2983 11.652C22.2983 10.98 22.4303 10.384 22.6943 9.864C22.9663 9.344 23.3303 8.944 23.7863 8.664C24.2503 8.384 24.7663 8.244 25.3343 8.244C25.8303 8.244 26.2623 8.344 26.6303 8.544C27.0063 8.744 27.3063 8.996 27.5303 9.3V8.352H29.2223V15H27.5303V14.028C27.3143 14.34 27.0143 14.6 26.6303 14.808C26.2543 15.008 25.8183 15.108 25.3223 15.108C24.7623 15.108 24.2503 14.964 23.7863 14.676C23.3303 14.388 22.9663 13.984 22.6943 13.464C22.4303 12.936 22.2983 12.332 22.2983 11.652ZM27.5303 11.676C27.5303 11.268 27.4503 10.92 27.2903 10.632C27.1303 10.336 26.9143 10.112 26.6423 9.96C26.3703 9.8 26.0783 9.72 25.7663 9.72C25.4543 9.72 25.1663 9.796 24.9023 9.948C24.6383 10.1 24.4223 10.324 24.2543 10.62C24.0943 10.908 24.0143 11.252 24.0143 11.652C24.0143 12.052 24.0943 12.404 24.2543 12.708C24.4223 13.004 24.6383 13.232 24.9023 13.392C25.1743 13.552 25.4623 13.632 25.7663 13.632C26.0783 13.632 26.3703 13.556 26.6423 13.404C26.9143 13.244 27.1303 13.02 27.2903 12.732C27.4503 12.436 27.5303 12.084 27.5303 11.676ZM33.6352 13.452L35.3152 8.352H37.1032L34.6432 15H32.6032L30.1552 8.352H31.9552L33.6352 13.452ZM37.6147 11.652C37.6147 10.98 37.7467 10.384 38.0107 9.864C38.2828 9.344 38.6468 8.944 39.1028 8.664C39.5668 8.384 40.0828 8.244 40.6508 8.244C41.1468 8.244 41.5788 8.344 41.9468 8.544C42.3228 8.744 42.6228 8.996 42.8468 9.3V8.352H44.5388V15H42.8468V14.028C42.6308 14.34 42.3308 14.6 41.9468 14.808C41.5708 15.008 41.1348 15.108 40.6388 15.108C40.0788 15.108 39.5668 14.964 39.1028 14.676C38.6468 14.388 38.2828 13.984 38.0107 13.464C37.7467 12.936 37.6147 12.332 37.6147 11.652ZM42.8468 11.676C42.8468 11.268 42.7668 10.92 42.6068 10.632C42.4468 10.336 42.2308 10.112 41.9588 9.96C41.6868 9.8 41.3948 9.72 41.0828 9.72C40.7708 9.72 40.4828 9.796 40.2188 9.948C39.9548 10.1 39.7388 10.324 39.5708 10.62C39.4108 10.908 39.3308 11.252 39.3308 11.652C39.3308 12.052 39.4108 12.404 39.5708 12.708C39.7388 13.004 39.9548 13.232 40.2188 13.392C40.4908 13.552 40.7788 13.632 41.0828 13.632C41.3948 13.632 41.6868 13.556 41.9588 13.404C42.2308 13.244 42.4468 13.02 42.6068 12.732C42.7668 12.436 42.8468 12.084 42.8468 11.676ZM49.8636 8.256C50.6556 8.256 51.2956 8.508 51.7836 9.012C52.2716 9.508 52.5156 10.204 52.5156 11.1V15H50.8356V11.328C50.8356 10.8 50.7036 10.396 50.4396 10.116C50.1756 9.828 49.8156 9.684 49.3596 9.684C48.8956 9.684 48.5276 9.828 48.2556 10.116C47.9916 10.396 47.8596 10.8 47.8596 11.328V15H46.1796V8.352H47.8596V9.18C48.0836 8.892 48.3676 8.668 48.7116 8.508C49.0636 8.34 49.4476 8.256 49.8636 8.256Z" fill="white"/>
<path d="M58.885 4.584C58.773 4.37867 58.619 4.22233 58.423 4.115C58.227 4.00767 57.9983 3.954 57.737 3.954C57.4477 3.954 57.191 4.01933 56.967 4.15C56.743 4.28067 56.568 4.46733 56.442 4.71C56.316 4.95267 56.253 5.23267 56.253 5.55C56.253 5.87667 56.316 6.16133 56.442 6.404C56.5727 6.64667 56.7523 6.83333 56.981 6.964C57.2097 7.09467 57.4757 7.16 57.779 7.16C58.1523 7.16 58.458 7.062 58.696 6.866C58.934 6.66533 59.0903 6.38767 59.165 6.033H57.485V5.284H60.131V6.138C60.0657 6.47867 59.9257 6.79367 59.711 7.083C59.4963 7.37233 59.2187 7.60567 58.878 7.783C58.542 7.95567 58.164 8.042 57.744 8.042C57.2727 8.042 56.8457 7.937 56.463 7.727C56.085 7.51233 55.7863 7.216 55.567 6.838C55.3523 6.46 55.245 6.03067 55.245 5.55C55.245 5.06933 55.3523 4.64 55.567 4.262C55.7863 3.87933 56.085 3.583 56.463 3.373C56.8457 3.15833 57.2703 3.051 57.737 3.051C58.2877 3.051 58.766 3.18633 59.172 3.457C59.578 3.723 59.858 4.09867 60.012 4.584H58.885Z" fill="white"/>
<circle cx="57.5" cy="5.5" r="4.1" stroke="white" stroke-width="0.8"/>
</svg>
